<?xml version="1.0" encoding="UTF-8"?> <svg xmlns="http://www.w3.org/2000/svg" width="296" height="173" viewBox="0 0 296 173" fill="none"><rect x="0.75" y="0.24292" width="295.088" height="172.135" rx="9.83627" fill="#FCFCFC"></rect><path d="M112.967 86.8508C112.967 87.1597 112.945 87.5405 112.902 87.9935H99.3755C99.5479 89.2494 100.087 90.2583 100.993 91.0201C101.899 91.7613 103.054 92.1319 104.456 92.1319C105.405 92.1319 106.257 91.9569 107.012 91.6069C107.789 91.2569 108.382 90.7833 108.792 90.1863L112.287 90.7422C111.683 92.2246 110.637 93.3673 109.148 94.1703C107.681 94.9732 106.042 95.3747 104.23 95.3747C102.547 95.3747 101.036 95.0247 99.6991 94.3247C98.3831 93.6041 97.3476 92.6158 96.5923 91.3598C95.8588 90.0833 95.4922 88.6421 95.4922 87.0361C95.4922 85.4302 95.8588 83.9992 96.5923 82.7433C97.3476 81.4667 98.3831 80.4785 99.6991 79.7784C101.036 79.0578 102.547 78.6975 104.23 78.6975C105.912 78.6975 107.412 79.0578 108.728 79.7784C110.065 80.4785 111.101 81.4565 111.834 82.7124C112.589 83.9477 112.967 85.3272 112.967 86.8508ZM104.23 81.7859C103.108 81.7859 102.126 82.0947 101.285 82.7124C100.465 83.3301 99.9039 84.1639 99.602 85.214H108.922C108.598 84.1845 108.016 83.3609 107.174 82.7433C106.354 82.105 105.373 81.7859 104.23 81.7859Z" fill="black"></path><path d="M123.114 95.3775C121.539 95.3775 120.126 95.0275 118.875 94.3274C117.624 93.6068 116.642 92.6185 115.93 91.3626C115.24 90.0861 114.895 88.6448 114.895 87.0388C114.895 85.4329 115.24 84.0019 115.93 82.746C116.642 81.4695 117.624 80.4812 118.875 79.7811C120.126 79.0605 121.539 78.7002 123.114 78.7002C124.473 78.7002 125.681 78.9679 126.739 79.5032C127.796 80.0179 128.659 80.6665 129.327 81.4489V73.2956H133.049V95.0686H130.266L129.489 92.4744C128.799 93.2774 127.914 93.9671 126.836 94.5436C125.757 95.0995 124.517 95.3775 123.114 95.3775ZM124.02 92.1965C125.595 92.1965 126.868 91.7229 127.839 90.7758C128.831 89.8081 129.327 88.5624 129.327 87.0388C129.327 85.5153 128.831 84.2799 127.839 83.3328C126.868 82.3651 125.595 81.8813 124.02 81.8813C122.467 81.8813 121.205 82.3651 120.234 83.3328C119.263 84.2799 118.778 85.5153 118.778 87.0388C118.778 88.5624 119.263 89.8081 120.234 90.7758C121.205 91.7229 122.467 92.1965 124.02 92.1965Z" fill="black"></path><path d="M143.568 95.3766C142.382 95.3766 141.303 95.0884 140.332 94.5119C139.383 93.9354 138.628 93.1427 138.067 92.1338C137.528 91.125 137.258 89.9823 137.258 88.7057V79.0082H140.979V88.3042C140.979 89.4572 141.314 90.3941 141.982 91.1147C142.673 91.8353 143.547 92.1956 144.604 92.1956C145.683 92.1956 146.578 91.8353 147.29 91.1147C148.002 90.3735 148.358 89.4367 148.358 88.3042V79.0082H152.079V95.0678H149.296L148.552 92.6589C148.012 93.503 147.3 94.1722 146.416 94.6663C145.531 95.1399 144.582 95.3766 143.568 95.3766Z" fill="black"></path><path d="M164.09 95.3747C162.407 95.3747 160.897 95.0247 159.56 94.3247C158.222 93.6041 157.176 92.6158 156.42 91.3598C155.687 90.0833 155.32 88.6421 155.32 87.0361C155.32 85.4302 155.687 83.9992 156.42 82.7433C157.176 81.4667 158.222 80.4785 159.56 79.7784C160.897 79.0578 162.407 78.6975 164.09 78.6975C165.945 78.6975 167.585 79.1402 169.009 80.0255C170.454 80.8902 171.479 82.1256 172.083 83.7315L168.588 84.2875C168.221 83.5874 167.649 83.0212 166.873 82.5889C166.118 82.1565 165.266 81.9403 164.316 81.9403C162.806 81.9403 161.576 82.4139 160.627 83.361C159.678 84.308 159.204 85.5331 159.204 87.0361C159.204 88.5391 159.678 89.7642 160.627 90.7113C161.576 91.6584 162.806 92.1319 164.316 92.1319C165.309 92.1319 166.193 91.9158 166.97 91.4834C167.746 91.0304 168.329 90.4436 168.717 89.723L172.212 90.2789C171.608 91.9054 170.562 93.1614 169.073 94.0467C167.585 94.9321 165.924 95.3747 164.09 95.3747Z" fill="black"></path><path d="M181.663 78.6975C183.821 78.6975 185.514 79.3461 186.743 80.6432C187.995 81.9197 188.621 83.7213 188.621 86.0478V95.0659H185.87L185.093 92.5334C184.619 93.2952 183.918 93.9644 182.99 94.5409C182.062 95.0968 180.962 95.3747 179.689 95.3747C178.567 95.3747 177.554 95.1586 176.647 94.7262C175.763 94.2938 175.072 93.6864 174.576 92.904C174.08 92.1217 173.832 91.2363 173.832 90.248C173.832 88.7244 174.458 87.5097 175.709 86.6038C176.982 85.6772 178.826 85.214 181.242 85.214H184.867C184.78 84.1433 184.435 83.2992 183.831 82.6815C183.249 82.0432 182.461 81.7241 181.469 81.7241C180.671 81.7241 179.98 81.9094 179.398 82.28C178.815 82.6506 178.384 83.1036 178.104 83.6389L174.673 83.083C175.083 81.7241 175.925 80.6535 177.198 79.8711C178.492 79.0887 179.98 78.6975 181.663 78.6975ZM180.563 92.379C181.857 92.379 182.904 91.9775 183.702 91.1745C184.5 90.3716 184.899 89.3112 184.899 87.9935H181.372C178.848 87.9935 177.586 88.6935 177.586 90.0936C177.586 90.7937 177.855 91.3496 178.395 91.7613C178.934 92.1731 179.657 92.379 180.563 92.379Z" fill="black"></path><path d="M202.691 91.9772L202.367 95.0656H199.228C197.394 95.0656 196.003 94.6538 195.053 93.8303C194.104 92.9861 193.63 91.7713 193.63 90.186V82.0944H190.879V79.006H193.63L194.568 74.3735H197.351V79.006H202.367V82.0944H197.351V90.186C197.351 91.3801 197.977 91.9772 199.228 91.9772H202.691Z" fill="black"></path><path d="M209.499 95.0617H205.777V79.0021H209.499V95.0617ZM207.654 76.7167C206.964 76.7167 206.403 76.5211 205.971 76.1299C205.54 75.7181 205.324 75.1931 205.324 74.5548C205.324 73.9166 205.54 73.3915 205.971 72.9798C206.424 72.568 206.985 72.3621 207.654 72.3621C208.323 72.3621 208.873 72.568 209.305 72.9798C209.736 73.3915 209.952 73.9166 209.952 74.5548C209.952 75.1931 209.736 75.7181 209.305 76.1299C208.873 76.5211 208.323 76.7167 207.654 76.7167Z" fill="black"></path><path d="M221.891 95.3747C220.165 95.3747 218.612 95.0247 217.231 94.3247C215.871 93.6041 214.804 92.6158 214.027 91.3598C213.272 90.0833 212.895 88.6421 212.895 87.0361C212.895 85.4302 213.272 83.9992 214.027 82.7433C214.804 81.4667 215.871 80.4785 217.231 79.7784C218.612 79.0578 220.165 78.6975 221.891 78.6975C223.616 78.6975 225.159 79.0578 226.518 79.7784C227.899 80.4785 228.967 81.4667 229.722 82.7433C230.498 83.9992 230.887 85.4302 230.887 87.0361C230.887 88.6421 230.498 90.0833 229.722 91.3598C228.967 92.6158 227.899 93.6041 226.518 94.3247C225.159 95.0247 223.616 95.3747 221.891 95.3747ZM221.891 92.1319C223.401 92.1319 224.63 91.6687 225.579 90.7422C226.529 89.7951 227.004 88.5597 227.004 87.0361C227.004 85.5125 226.529 84.2875 225.579 83.361C224.63 82.4139 223.401 81.9403 221.891 81.9403C220.381 81.9403 219.151 82.4139 218.202 83.361C217.252 84.2875 216.777 85.5125 216.777 87.0361C216.777 88.5597 217.252 89.7951 218.202 90.7422C219.151 91.6687 220.381 92.1319 221.891 92.1319Z" fill="black"></path><path d="M234.117 95.0659V79.0063H236.9L237.645 81.4153C238.184 80.5711 238.896 79.9122 239.78 79.4387C240.686 78.9446 241.657 78.6975 242.693 78.6975C243.901 78.6975 244.99 78.9857 245.961 79.5622C246.932 80.1387 247.697 80.9314 248.259 81.9403C248.819 82.9492 249.1 84.0919 249.1 85.3684V95.0659H245.378V85.7699C245.378 84.6169 245.033 83.6801 244.343 82.9595C243.653 82.2389 242.768 81.8785 241.69 81.8785C240.568 81.8785 239.64 82.2491 238.906 82.9904C238.195 83.711 237.839 84.6375 237.839 85.7699V95.0659H234.117Z" fill="black"></path><path d="M47.4883 85.6131C47.4883 77.7249 47.4883 73.7808 49.9853 71.3302C52.4823 68.8797 56.5012 68.8797 64.5391 68.8797H65.96C73.9978 68.8797 78.0167 68.8797 80.5137 71.3302C83.0107 73.7808 83.0107 77.7249 83.0107 85.6131V87.0075C83.0107 94.8957 83.0107 98.8398 80.5137 101.29C78.0167 103.741 73.9978 103.741 65.96 103.741H64.5391C56.5012 103.741 52.4823 103.741 49.9853 101.29C47.4883 98.8398 47.4883 94.8957 47.4883 87.0075V85.6131Z" fill="#0077FF"></path><path d="M66.4037 93.9899C58.2995 93.9899 53.677 88.5428 53.4844 79.4789H57.5439C57.6772 86.1316 60.67 88.9495 63.0405 89.5305V79.4789H66.8631V85.2164C69.204 84.9695 71.6632 82.355 72.4929 79.4789H76.3155C75.6784 83.0231 73.0115 85.6377 71.1151 86.7126C73.0115 87.5841 76.0489 89.8646 77.2045 93.9899H72.9967C72.0929 91.23 69.8411 89.0948 66.8631 88.8043V93.9899H66.4037Z" fill="#FCFCFC"></path></svg> 