<?xml version="1.0" encoding="UTF-8"?> <svg xmlns="http://www.w3.org/2000/svg" width="296" height="173" viewBox="0 0 296 173" fill="none"><rect x="0.660156" y="0.646851" width="295.088" height="172.135" rx="9.83627" fill="#FCFCFC"></rect><mask id="mask0_481_2296" style="mask-type:luminance" maskUnits="userSpaceOnUse" x="72" y="43" width="153" height="88"><path d="M72.293 43.3842H224.107V130.044H72.293V43.3842Z" fill="white"></path></mask><g mask="url(#mask0_481_2296)"><path d="M205.532 130.044H90.8684C80.6257 130.044 72.293 121.792 72.293 111.649C72.293 101.505 80.6257 93.2532 90.8684 93.2532H205.532C215.774 93.2532 224.107 101.505 224.107 111.649C224.107 121.792 215.774 130.044 205.532 130.044ZM90.8684 94.9949C81.5959 94.9949 74.0516 102.466 74.0516 111.649C74.0516 120.832 81.5954 128.302 90.8684 128.302H205.532C214.805 128.302 222.348 120.832 222.348 111.649C222.348 102.466 214.805 94.9949 205.532 94.9949H90.8684Z" fill="#5AC134"></path><path d="M217.194 80.0349H175.762V77.0027H214.132V50.7763H217.194V80.0349Z" fill="#040606"></path><path d="M221.646 56.3151L216.5 51.2191H214.825L209.68 56.3151L207.514 54.1712L213.557 48.187H217.768L223.811 54.1712L221.646 56.3151ZM165.058 73.4842V74.0917C167.731 74.3955 168.63 75.3285 168.63 77.065C168.63 79.0832 167.096 80.1466 164.335 80.1466H157.191V68.124H164.138C166.614 68.124 167.972 69.2524 167.972 70.8585C167.972 72.3124 167.315 73.1371 165.058 73.4842ZM160.434 70.5547V72.7461H163.239C164.313 72.7461 164.663 72.2907 164.663 71.661C164.663 71.0101 164.313 70.5542 163.239 70.5542L160.434 70.5547ZM160.434 77.7164H163.59C164.905 77.7164 165.299 77.2388 165.299 76.4579C165.299 75.677 164.905 75.1557 163.59 75.1557H160.434V77.7164ZM123.641 68.1244V84.4876H126.928V68.124L123.641 68.1244ZM130.106 77.5209C128.111 77.5209 126.928 76.002 126.928 74.1572C126.928 72.3124 128.111 70.7935 130.106 70.7935C132.121 70.7935 133.283 72.3124 133.283 74.1572C133.283 76.002 132.121 77.5209 130.106 77.5209ZM131.639 80.3421C133.984 80.3421 136.57 77.9114 136.57 74.1572C136.57 70.403 133.984 67.9723 131.639 67.9723C129.426 67.9723 128.133 69.2308 127.673 70.8151H126.511L126.621 77.7164H127.673C128.111 79.2786 129.404 80.3421 131.639 80.3421ZM94.2766 68.124V84.4872H97.5638V68.124H94.2766ZM100.741 77.5204C98.747 77.5204 97.5634 76.0015 97.5634 74.1567C97.5634 72.3119 98.7466 70.793 100.741 70.793C102.757 70.793 103.919 72.3119 103.919 74.1567C103.919 76.0015 102.757 77.5204 100.741 77.5204ZM102.275 80.3416C104.619 80.3416 107.205 77.9109 107.205 74.1567C107.205 70.4026 104.619 67.9718 102.275 67.9718C100.062 67.9718 98.7689 69.2303 98.3082 70.8147H97.1468L97.2564 77.7159H98.3082C98.7466 79.2781 100.039 80.3416 102.275 80.3416ZM115.204 77.5204C113.21 77.5204 112.027 76.0015 112.027 74.1567C112.027 72.3119 113.21 70.793 115.204 70.793C117.22 70.793 118.382 72.3119 118.382 74.1567C118.382 76.0015 117.22 77.5204 115.204 77.5204ZM115.204 80.3416C119.083 80.3416 121.669 77.9109 121.669 74.1567C121.669 70.4026 119.083 67.9718 115.204 67.9718C111.325 67.9718 108.74 70.4026 108.74 74.1567C108.74 77.9109 111.325 80.3416 115.204 80.3416ZM102.498 60.2021H96.2967V48.1795H99.5403V55.5361L99.4089 59.117H100.044L100.263 57.2726L102.761 48.1795H108.941V60.2021H105.698V52.8454L105.829 49.2646H105.193L104.974 51.1094L102.498 60.2026L102.498 60.2021ZM178.352 57.5764C176.357 57.5764 175.174 56.0575 175.174 54.2127C175.174 52.3679 176.357 50.849 178.352 50.849C180.368 50.849 181.529 52.3683 181.529 54.2127C181.529 56.057 180.368 57.5764 178.352 57.5764ZM178.352 60.3976C182.23 60.3976 184.816 57.9668 184.816 54.2127C184.816 50.4585 182.23 48.0278 178.351 48.0278C174.473 48.0278 171.886 50.458 171.886 54.2127C171.886 57.9673 174.472 60.3976 178.351 60.3976H178.352ZM130.075 48.1795V64.5426H133.362V48.1795H130.075ZM136.539 57.5764C134.545 57.5764 133.362 56.0575 133.362 54.2127C133.362 52.3679 134.545 50.849 136.539 50.849C138.556 50.849 139.717 52.3683 139.717 54.2127C139.717 56.057 138.556 57.5764 136.539 57.5764ZM138.074 60.3976C140.418 60.3976 143.004 57.9668 143.004 54.2127C143.004 50.4585 140.418 48.0278 138.074 48.0278C135.86 48.0278 134.567 49.2863 134.107 50.8706H132.946L133.055 57.7719H134.107C134.545 59.3346 135.838 60.3976 138.074 60.3976ZM151.003 57.5764C149.008 57.5764 147.825 56.0575 147.825 54.2127C147.825 52.3679 149.008 50.849 151.003 50.849C153.019 50.849 154.18 52.3683 154.18 54.2127C154.18 56.057 153.019 57.5764 151.003 57.5764ZM151.003 60.3976C154.881 60.3976 157.467 57.9668 157.467 54.2127C157.467 50.4585 154.881 48.0278 151.003 48.0278C147.125 48.0278 144.538 50.458 144.538 54.2127C144.538 57.9673 147.124 60.3976 151.003 60.3976ZM138.542 68.124H141.83V71.3572H144.568C147.702 71.3572 149.412 73.0933 149.412 75.7411C149.412 78.3889 147.702 80.1466 144.568 80.1466H138.542V68.124ZM141.83 74.0917V77.325H144.086C145.686 77.325 146.124 76.7174 146.124 75.719C146.124 74.6772 145.686 74.0913 144.086 74.0913L141.83 74.0917ZM151.274 68.124V80.1466H154.561V68.124H151.274ZM91.6469 80.1461H88.3596V70.9451H83.1662V80.1466H79.8789V68.124H91.6464V80.1466L91.6469 80.1461ZM192.99 60.2021H186.788V48.1795H190.031V55.5361L189.9 59.117H190.536L190.755 57.2726L193.253 48.1795H199.433V60.2021H196.189V52.8454L196.321 49.2646H195.686L195.466 51.1094L192.99 60.2021ZM194.568 43.3835H197.132C196.934 45.5538 195.51 46.8993 192.837 46.8993C190.185 46.8993 188.739 45.5538 188.541 43.3835H191.105C191.193 44.1648 191.697 44.8157 192.837 44.8157C194.042 44.8157 194.48 44.1648 194.568 43.3835ZM167.307 53.5401V54.1477C169.981 54.4515 170.879 55.3849 170.879 57.121C170.879 59.1391 169.345 60.2026 166.584 60.2026H159.44V48.1795H166.386C168.863 48.1795 170.222 49.3079 170.222 50.914C170.222 52.3679 169.564 53.1925 167.307 53.5401ZM162.683 50.6102V52.8021H165.488C166.562 52.8021 166.913 52.3462 166.913 51.717C166.913 51.0661 166.562 50.6102 165.488 50.6102H162.683ZM162.683 57.7719H165.839C167.154 57.7719 167.548 57.2943 167.548 56.5134C167.548 55.7325 167.154 55.2112 165.839 55.2112H162.683V57.7719ZM121.07 60.2026V64.5426H117.849V60.2026H117.433C113.334 60.2026 111.012 57.6635 111.012 54.191C111.012 50.7623 113.291 48.2449 117.301 48.1795H117.849V43.6223H121.07V48.1795H121.618C125.584 48.2444 127.907 50.7618 127.907 54.191C127.907 57.6631 125.628 60.2026 121.486 60.2026H121.07ZM117.367 57.6202H117.849V50.784H117.41C115.307 50.849 114.299 52.3245 114.299 54.191C114.299 56.1008 115.307 57.5552 117.367 57.6202ZM121.07 57.6202H121.486C123.612 57.5552 124.598 56.1008 124.598 54.1915C124.598 52.325 123.612 50.8494 121.486 50.7844H121.07V57.6202ZM91.8656 48.1795H88.5788V57.381H83.6918V48.1795H80.4046V60.2021H90.9016V63.5442H94.0574V57.381H91.8661L91.8656 48.1795ZM99.4701 105.266C102.048 105.266 104.251 106.635 105.282 109.072L102.376 110.07C101.836 108.84 100.759 108.144 99.4701 108.144C97.6649 108.144 96.2824 109.583 96.2824 111.486C96.2824 113.412 97.6649 114.851 99.4701 114.851C100.759 114.851 101.836 114.132 102.376 112.902L105.282 113.9C104.251 116.337 102.048 117.706 99.4701 117.706C95.79 117.706 93.0013 115.014 93.0013 111.486C93.0013 107.958 95.79 105.266 99.4701 105.266ZM119.341 112.6H110.014C110.435 114.016 111.654 115.014 113.318 115.014C114.631 115.014 115.732 114.387 116.318 113.343L118.919 114.503C117.864 116.383 115.849 117.706 113.224 117.706C109.544 117.706 106.756 115.014 106.756 111.486C106.756 107.958 109.498 105.266 113.107 105.266C117.161 105.266 119.997 108.608 119.341 112.6ZM110.06 110.21H116.177C115.755 108.863 114.606 107.958 113.107 107.958C111.677 107.958 110.506 108.863 110.06 110.21ZM131.338 114.387C131.338 116.429 129.112 117.706 126.112 117.706C123.908 117.706 121.776 116.987 120.464 115.687L122.198 113.575C123.3 114.619 125.034 115.014 126.112 115.014C127.448 115.014 128.057 114.503 128.057 113.9C128.057 112.995 127.073 112.762 125.643 112.762H123.886V110.21H125.643C127.073 110.21 128.057 109.977 128.057 109.072C128.057 108.468 127.448 107.958 126.112 107.958C125.034 107.958 123.3 108.353 122.198 109.42L120.464 107.285C121.776 105.985 123.908 105.266 126.112 105.266C129.112 105.266 131.338 106.543 131.338 108.608C131.338 109.931 130.307 111.161 127.94 111.486C130.307 111.811 131.338 113.041 131.338 114.387ZM139.705 105.266C143.384 105.266 146.173 107.958 146.173 111.486C146.173 115.014 143.384 117.706 139.705 117.706C136.025 117.706 133.236 115.014 133.236 111.486C133.236 107.958 136.025 105.266 139.705 105.266ZM139.705 114.851C141.533 114.851 142.892 113.412 142.892 111.486C142.892 109.583 141.533 108.144 139.705 108.144C137.9 108.144 136.517 109.583 136.517 111.486C136.517 113.412 137.9 114.851 139.705 114.851ZM148.349 117.474V105.498H151.512V110.117H156.997V105.498H160.161V117.474H156.997V112.855H151.512V117.474H148.349ZM164.613 105.289C165.738 105.289 166.699 106.218 166.699 107.378C166.699 108.468 165.738 109.443 164.613 109.443C163.441 109.443 162.504 108.468 162.504 107.378C162.504 106.218 163.441 105.289 164.613 105.289ZM164.613 113.528C165.738 113.528 166.699 114.457 166.699 115.617C166.699 116.708 165.738 117.683 164.613 117.683C163.441 117.683 162.504 116.708 162.504 115.617C162.504 114.457 163.441 113.528 164.613 113.528ZM182.421 105.498H188.163V117.474H185.187V106.195L181.905 117.474H176.164V105.498H179.14V116.87L182.421 105.498ZM197.067 105.498H202.809V117.474H199.833V106.195L196.551 117.474H190.81V105.498H193.786V116.87L197.067 105.498Z" fill="#040606"></path></g></svg> 