<?xml version="1.0" encoding="UTF-8"?> <svg xmlns="http://www.w3.org/2000/svg" width="297" height="173" viewBox="0 0 297 173" fill="none"><rect x="0.925781" y="0.377563" width="295.088" height="172.135" rx="9.83627" fill="#FCFCFC"></rect><path fill-rule="evenodd" clip-rule="evenodd" d="M126.275 124.028C126.07 126.524 125.207 128.487 123.604 130.001C122.001 131.473 119.946 132.25 117.439 132.25C114.562 132.25 112.261 131.269 110.535 129.346C108.808 127.424 107.945 124.846 107.945 121.656C107.945 119.733 108.315 117.974 109.055 116.379C109.795 114.784 110.904 113.516 112.384 112.534C113.864 111.552 115.631 111.061 117.604 111.061C119.741 111.061 121.631 111.634 123.234 112.82C124.837 114.007 125.782 115.725 126.111 117.933H122.576C122.33 116.706 121.754 115.766 120.85 115.07C119.946 114.375 118.836 114.047 117.521 114.047C116.165 114.047 115.014 114.416 114.069 115.193C113.124 115.97 112.466 116.87 112.055 117.974C111.685 119.079 111.48 120.306 111.48 121.615C111.48 122.597 111.603 123.538 111.809 124.397C112.055 125.256 112.384 126.074 112.836 126.81C113.288 127.546 113.905 128.119 114.727 128.569C115.507 129.019 116.453 129.223 117.48 129.223C120.522 129.223 122.248 127.505 122.659 124.069H126.275V124.028ZM129.44 111.47H138.728C140.865 111.47 142.509 111.92 143.619 112.861C144.77 113.761 145.304 115.029 145.304 116.584C145.304 117.565 145.057 118.424 144.523 119.202C143.989 119.979 143.29 120.511 142.427 120.879C143.619 121.165 144.523 121.738 145.222 122.597C145.921 123.456 146.249 124.519 146.249 125.828C146.249 127.628 145.674 129.06 144.482 130.164C143.29 131.269 141.728 131.8 139.838 131.8H129.44V111.47ZM132.892 114.334V119.897H137.742C139.098 119.897 140.126 119.692 140.783 119.242C141.441 118.833 141.77 118.097 141.77 117.115C141.77 115.97 141.441 115.234 140.742 114.866C140.085 114.497 139.098 114.334 137.865 114.334H132.892ZM132.892 122.474V128.814H138.235C139.591 128.814 140.701 128.569 141.482 128.119C142.263 127.669 142.633 126.851 142.633 125.665C142.633 125.01 142.509 124.437 142.263 123.987C142.016 123.538 141.687 123.21 141.235 123.006C140.783 122.801 140.331 122.638 139.838 122.597C139.345 122.515 138.81 122.474 138.153 122.474H132.892ZM169.47 121.533C169.47 124.028 168.607 125.951 166.881 127.342C165.155 128.732 163.1 129.428 160.716 129.469V131.759H157.141V129.469C155.62 129.428 154.223 129.142 152.948 128.569C151.674 127.996 150.565 127.137 149.702 125.91C148.839 124.683 148.386 123.251 148.386 121.533C148.386 119.079 149.208 117.115 150.894 115.725C152.579 114.293 154.675 113.557 157.141 113.475V111.511H160.716V113.475C163.223 113.557 165.319 114.334 166.963 115.725C168.648 117.115 169.47 119.038 169.47 121.533ZM165.895 121.533C165.895 118.547 164.168 116.911 160.716 116.543V126.401C162.401 126.196 163.675 125.705 164.579 124.969C165.484 124.233 165.895 123.047 165.895 121.533ZM157.141 126.36V116.502C153.688 116.87 151.962 118.547 151.962 121.492C151.962 123.047 152.414 124.192 153.318 124.928C154.181 125.705 155.455 126.155 157.141 126.36ZM177.32 126.033L170.292 111.47H174.238L179.128 122.31L184.142 111.47H188.006L180.115 127.587C179.293 129.264 178.43 130.45 177.484 131.146C176.539 131.841 175.512 132.209 174.32 132.209C173.498 132.209 172.676 132.046 171.936 131.678V128.692C172.47 129.019 173.251 129.182 174.238 129.182C174.854 129.182 175.347 128.937 175.799 128.487C176.21 127.996 176.745 127.219 177.361 126.074L177.32 126.033Z" fill="#1E3A4A"></path><path fill-rule="evenodd" clip-rule="evenodd" d="M121.427 61.4841C122.084 61.7705 123.4 62.3431 124.674 62.8749L121.427 61.4841ZM149.908 41.5224C140.99 41.5224 132.934 45.1629 127.14 51.0533C121.303 38.659 113.741 41.5224 105.48 48.7626C111.234 47.1264 117.07 52.1986 121.673 58.498C119.331 62.9158 118.016 67.9472 118.016 73.3057C118.016 90.8541 132.277 105.048 149.908 105.048C167.54 105.048 181.801 90.8541 181.801 73.3057C181.801 59.9706 173.54 48.5581 161.827 43.854C162.772 43.0768 163.594 42.4632 164.128 42.095C165.813 40.9088 165.32 41.236 165.115 41.3587L161.21 43.6085C157.676 42.2586 153.895 41.5224 149.908 41.5224ZM128.29 53.5076V51.4214L140.497 51.7078L136.921 60.0524L132.523 61.8932C131.332 59.8888 129.975 57.1482 128.29 53.5076ZM132.893 62.5068L136.469 61.0342L134.743 65.0429C134.209 64.4293 133.592 63.6112 132.893 62.5068ZM135.359 65.6156L137.496 60.6251L146.25 56.9845L138.77 65.9837C137.62 66.6382 136.551 66.5973 135.359 65.6156ZM147.237 55.7983L137.907 59.6843L141.236 51.8305L148.141 54.6938L147.237 55.7983ZM148.634 54.1212L141.688 51.2578L150.278 42.6268L154.799 47.2491L153.813 47.8218L148.634 54.1212ZM155.457 46.8809L151.264 42.5859C154.306 42.7086 157.265 43.2813 160.019 44.263L155.457 46.8809ZM160.923 44.5902C161.128 44.6721 161.334 44.7539 161.539 44.8357L159.114 50.6033L156.772 48.2308C158.292 46.84 159.731 45.572 160.923 44.5902ZM156.237 48.7217L158.539 51.0942L150.607 54.4075C152.539 52.3213 154.47 50.3988 156.237 48.7217ZM149.456 55.6347L149.949 55.4301L159.649 59.4389L160.594 60.257C160.553 60.3388 160.553 60.4206 160.512 60.5433L158.128 61.3614L160.799 61.4841L158.128 65.002L161.334 61.9341L161.704 64.9202L161.991 62.0159L163.06 64.2248L163.183 62.0159L163.553 62.2204L168.279 73.2648L163.019 85.6182L149.949 91.0177L138.688 86.3954C139.51 85.8228 140.045 85.4546 140.003 85.3728C133.633 77.069 141.072 65.002 149.456 55.6347ZM137.948 86.8454L149.004 91.3859L141.195 94.6174L137.907 86.8863L137.948 86.8454ZM137.25 87.2954L140.414 94.7401L128.126 94.9446L128.167 82.8776L129.729 83.5321C129.647 86.5182 130.058 89.4633 131.167 91.0586C132.154 90.4451 135.03 88.727 137.25 87.2954ZM129.77 82.6731L128.29 82.0595L130.838 76.1282C130.88 76.4555 130.921 76.66 130.88 76.7827C130.304 78.3371 129.893 80.5051 129.77 82.6731ZM130.551 74.9829L127.674 81.6504L119.125 73.2239L126.482 66.0655C128.455 69.7061 129.893 73.0194 130.551 74.9829ZM126.112 65.411C125.66 64.5929 125.167 63.7748 124.674 62.9158C123.975 61.7705 123.194 60.5842 122.413 59.4389C122.084 60.0933 121.756 60.7887 121.468 61.4841C120.071 64.7975 119.249 68.438 119.125 72.2422L126.112 65.411ZM107.494 47.9854C109.631 46.3492 112.467 43.8949 115.18 43.5676C111.727 46.5946 110.207 46.5537 115.015 49.4989C115.015 49.4989 115.139 50.3579 114.687 49.9897C112.796 48.3944 109.631 47.1264 107.494 47.9854ZM173.17 81.9368L180.773 74.2057C180.65 77.8871 179.91 81.3641 178.636 84.5956L173.17 81.9368ZM178.349 85.291C177.033 88.3998 175.225 91.2223 173.006 93.6766L172.841 82.5912L178.349 85.291ZM159.936 95.5582L171.567 95.1492C168.937 97.7262 165.813 99.8533 162.361 101.367L159.936 95.5582ZM161.704 101.694C158.457 103.044 154.963 103.821 151.264 103.985L159.238 95.8036L161.704 101.694ZM137.661 101.489C134.332 100.058 131.332 98.0534 128.742 95.64L140.209 95.4764L137.661 101.489ZM140.949 95.5991L149.251 103.985C145.387 103.903 141.73 103.126 138.359 101.776L140.949 95.5991ZM161.498 59.4798L161.334 59.398L159.443 57.7617L160.142 58.948L150.854 55.1029L158.991 51.7078L161.95 58.6208L161.662 59.4389C161.621 59.4389 161.58 59.4389 161.498 59.4798ZM162.32 57.5163L159.772 51.585L171.937 51.8305L172.06 63.8566L165.074 60.9524L165.978 60.8296L163.512 59.9706L165.033 59.3161L163.183 59.3571L165.156 56.9436C165.156 56.9436 163.594 58.1299 162.854 58.6617L162.484 57.7617V57.2709L162.32 57.5163ZM164.498 62.5886L163.923 61.2387L171.937 64.5929L168.649 72.324L164.58 62.7931L164.704 62.8749L164.498 62.5886ZM172.8 63.8157L172.677 52.5668C174.978 55.062 176.869 57.9663 178.266 61.1569L172.8 63.8157ZM178.554 61.8114C179.869 65.0429 180.609 68.5198 180.732 72.1604L173.088 64.5111L178.554 61.8114ZM162.197 45.122C165.567 46.5946 168.608 48.6399 171.238 51.1351L159.772 50.8897L162.197 45.122ZM138.606 44.713C141.935 43.404 145.511 42.6677 149.251 42.5859L141.113 50.7669L138.606 44.713ZM140.414 50.9715L128.948 50.726C131.537 48.3126 134.578 46.3901 137.907 44.9584L140.414 50.9715ZM127.386 94.2902C124.92 91.6722 122.947 88.6452 121.509 85.291L127.468 83.123L127.386 94.2902ZM121.221 84.6365C119.906 81.405 119.166 77.8871 119.084 74.2057L127.386 82.3867L121.221 84.6365ZM141.606 95.1901L149.949 91.754L158.621 95.3128L150.237 103.903L141.606 95.1901ZM159.895 94.8219L163.594 86.15L172.102 82.6322L172.266 94.372L159.895 94.8219ZM172.595 81.4868L169.101 73.3057L172.595 65.0838L180.732 73.2239L172.595 81.4868ZM150.895 91.3859L162.608 86.5591L159.114 94.7401L150.895 91.3859ZM168.69 74.2057L171.978 81.8959L164.005 85.1683L168.69 74.2057Z" fill="#12324D"></path></svg> 